<svg id="Слой_1" data-name="Слой 1" xmlns="http://www.w3.org/2000/svg" xmlns:xlink="http://www.w3.org/1999/xlink" viewBox="0 0 232.09 77.21"><defs><style>.cls-1{fill:#fff;}.cls-2{fill:#fecc00;}.cls-3{fill:#ff3131;}</style><symbol id="Новый_символ" data-name="Новый символ" viewBox="0 0 29.77 13.45"><path class="cls-1" d="M1.58,5.44A1.51,1.51,0,0,1,.42,5,1.68,1.68,0,0,1,0,3.78V1.68A1.71,1.71,0,0,1,.42.44,1.51,1.51,0,0,1,1.58,0,1.52,1.52,0,0,1,2.74.43,1.86,1.86,0,0,1,3.2,1.67H2.27a.92.92,0,0,0-.19-.59A.66.66,0,0,0,1.57.89c-.41,0-.62.26-.62.79v2.1c0,.51.21.77.63.77a.66.66,0,0,0,.51-.18.84.84,0,0,0,.2-.58h.93A1.74,1.74,0,0,1,2.76,5,1.61,1.61,0,0,1,1.58,5.44Z"/><path class="cls-1" d="M6.57.1V1H5.51V5.35H4.57V1H3.51V.1Z"/><path class="cls-1" d="M9.12.1h1L8.84,4.15a2.07,2.07,0,0,1-.57,1,1.63,1.63,0,0,1-1,.27H7.06V4.61h.22a.62.62,0,0,0,.46-.15A1.34,1.34,0,0,0,8,3.88L6.71.1h1l.75,2.35Z"/><path class="cls-1" d="M13.41,4.49h.47V6.24H13V5.35H10.6v.89H9.69V4.49H10a3.15,3.15,0,0,0,.61-2L10.71.1h2.7Zm-.91,0V1h-.93L11.5,2.71a3.87,3.87,0,0,1-.41,1.78Z"/><path class="cls-1" d="M15.41,4.48h1.8v.87H14.49V.1h2.64V1H15.41V2.27H17v.84H15.41Z"/><path class="cls-1" d="M20.17.1h.93V5.35h-.93V3.14H18.9V5.35H18V.1h.92V2.27h1.27Z"/><path class="cls-1" d="M24.77.1V1H23.71V5.35h-.94V1H21.71V.1Z"/><path class="cls-1" d="M25.33,5.35V.1h.94V2.15h.41a1.58,1.58,0,0,1,1.21.43,1.69,1.69,0,0,1,.41,1.19A1.63,1.63,0,0,1,27.9,5a1.69,1.69,0,0,1-1.22.39Zm.94-.84h.35a.65.65,0,0,0,.72-.74q0-.75-.72-.75h-.35Zm2.58.84V.1h.92V5.35Z"/><path class="cls-1" d="M3.54,8.11h.94v5.25H3.57V11.71c0-.78.05-1.38.08-1.8l0,0-.25.7-.24.68-.35.93H1.85l-.35-.93c-.22-.63-.38-1.09-.49-1.38l0,0c0,.42,0,1,.07,1.8v1.65H.15V8.11h.93l.86,2.05c.16.41.28.73.35,1h0c.06-.2.18-.52.36-1Z"/><path class="cls-1" d="M7,13.45A1.57,1.57,0,0,1,5.75,13a1.84,1.84,0,0,1-.44-1.3V9.79a1.84,1.84,0,0,1,.44-1.3A1.56,1.56,0,0,1,7,8a1.55,1.55,0,0,1,1.21.47,1.84,1.84,0,0,1,.44,1.3v1.88A1.84,1.84,0,0,1,8.18,13,1.56,1.56,0,0,1,7,13.45Zm0-.9c.46,0,.7-.29.7-.88V9.79c0-.59-.24-.88-.7-.88s-.71.29-.71.88v1.88C6.26,12.26,6.5,12.55,7,12.55Z"/><path class="cls-1" d="M10.88,13.45A1.54,1.54,0,0,1,9.72,13a1.71,1.71,0,0,1-.41-1.23V9.68a1.75,1.75,0,0,1,.41-1.24A1.54,1.54,0,0,1,10.88,8a1.55,1.55,0,0,1,1.17.43,1.81,1.81,0,0,1,.45,1.24h-.92a.92.92,0,0,0-.19-.59.66.66,0,0,0-.51-.19c-.41,0-.62.27-.62.79v2.1c0,.52.21.77.62.77a.68.68,0,0,0,.52-.18.88.88,0,0,0,.2-.57h.93A1.83,1.83,0,0,1,12.07,13,1.62,1.62,0,0,1,10.88,13.45Z"/><path class="cls-1" d="M15.52,13.36l-1.1-2.14-.32.5v1.64h-.91V8.11h.91v2.15l.31-.62.88-1.53h1.06l-1.41,2.28,1.64,3Z"/><path class="cls-1" d="M19.46,10.66a1.11,1.11,0,0,1,.49.47,1.31,1.31,0,0,1,.18.69,1.44,1.44,0,0,1-1.53,1.54H17V8.11h1.53a1.33,1.33,0,0,1,1,.4,1.44,1.44,0,0,1,.38,1.06A1.3,1.3,0,0,1,19.46,10.66ZM18.41,9h-.47v1.29h.5c.38,0,.56-.22.56-.66S18.81,9,18.41,9Zm.05,3.51c.48,0,.72-.23.72-.67A.67.67,0,0,0,19,11.3a.79.79,0,0,0-.54-.17h-.51v1.36Z"/><path class="cls-1" d="M20.8,13.36V8.11h.95v2h.41a1.6,1.6,0,0,1,1.21.43,1.68,1.68,0,0,1,.4,1.19A1.62,1.62,0,0,1,23.38,13a1.69,1.69,0,0,1-1.22.4Zm.95-.85h.34a.65.65,0,0,0,.72-.74q0-.75-.72-.75h-.34Zm2.58.85V8.11h.92v5.25Z"/></symbol></defs><title>Монтажная область 1</title><path class="cls-2" d="M54.22,60.76c-1.45,4.67-19.79,4.51-8.69,9.66,6.76,3.21,19-5.15,10.62-16.57a20.33,20.33,0,0,0-8-6.92c-6.75-3.06-20.75-.81-32.65-3.06.8,2.25,4,5,6.11,6.12,5,2.73,12.55,1.6,20.27,1.6,5.63.16,15,.81,12.39,9.17"/><path class="cls-2" d="M49.39,11.38c1.13,5,2.74,5.3,8.85,5.63-3.86,1.93-9.33,3-12.07-.49C43,12.34,48.26,6.23,49.39,11.38"/><path class="cls-3" d="M50.36,44C43.92,29.55,30.09,33.58,18.66,32c-5-.65-7.08-1.93-10.94-3.7,0,4.5,8.21,12.71,15.77,13.67,4.18.48,10.13.16,14.48.16a47.89,47.89,0,0,1,6.76.32c2.73.16,3.53,1,5.63,1.61"/><path class="cls-2" d="M47,32.93c-2.9-15.44-20.11-12.71-32.82-15.44-5.63-1.13-7.72-2.74-11.58-5C1.13,17,8.05,26.18,16.57,28c4.67,1,11.59,1.12,16.57,1.6,2.58.33,5.31.49,7.72,1,3.06.64,4,1.45,6.12,2.41"/><path class="cls-2" d="M65.32,44c8.2-14.48,25.9-10.45,40.22-12.06,6.43-.65,9.17-1.93,14-3.86,0,6.75-6.59,11.9-14.64,13.67-8.36,1.77-18.18.16-23.65.16a78.7,78.7,0,0,0-8.68.32c-3.38.32-4.51,1.13-7.24,1.77"/><path class="cls-3" d="M73.52,52.4c2.41-7.88,12.39-9.17,18.82-7.4,21.08,6-1.93,41.83-27.18,15.12-8.85-9.33-18.67-25.42-13-35.07,3.37-5.63,6.91-6.92,8.2-8.37-6.11-5.3,2.09-12.54,6-10.45-4.5,5,11.91,16.73,7.56,21.23-.32.32-3.21-4.34-9.65-1-7.08,3.54-5.47,20.75,1.45,29,15.76,18.83,29.6-10.77,7.88-3.05"/><path class="cls-3" d="M78.19,31.32c3-15.44,19.62-12.71,32.33-15.44,5.63-1.13,8.37-2.74,12.23-5,1.45,4.51-5.47,13.68-14,15.45-4.66,1-11.58,1.12-16.57,1.61-2.57.32-5.31.48-7.72,1-3.06.64-4,1.45-6.27,2.41"/><path class="cls-3" d="M36.84,64.3c1.93-5,3.86-5.31,10.78-5.63-4.34-1.93-10.46-3.05-14,.49-4.18,4,1.13,10.29,3.22,5.14"/><path class="cls-2" d="M108.59,53.52c-.8-4.66-2.57-5.14-9.49-6.27,4.67-1.29,10.94-1.61,13.68,1.93,3.37,4.18-3.22,9.17-4.19,4.34"/><use width="29.77" height="13.45" transform="translate(131.8 18.84) scale(3.22)" xlink:href="#Новый_символ"/></svg>